<svg height="60" viewBox="0 0 60 60" width="60" xmlns="http://www.w3.org/2000/svg"><path d="m29.9992 0c-16.5678 0-29.999 13.4316-29.999 29.9994 0 16.5674 13.4312 30 29.999 30s30-13.4326 30-30c0-16.5678-13.4322-29.9994-30-29.9994zm.0006 10.5372 17.7526 11.07h-35.5052zm17.9738 28.7474h-.0018c0 1.7756-1.439 3.2144-3.2144 3.2144h-29.5152c-1.7756 0-3.2144-1.439-3.2144-3.2144v-16.973c0-.1878.0192-.3704.0504-.5498l16.9616 10.5766c.0208.013.043.0218.0644.0338.0224.0124.0452.0244.068.0358.1198.0618.2432.1116.3694.1442.013.0036.026.0052.039.0082.1384.0326.2786.053.4186.053h.001.002c.14 0 .2802-.0198.4186-.053.013-.0032.026-.0046.039-.0082.126-.0326.249-.0824.3694-.1442.0228-.0114.0456-.0234.068-.0358.0212-.012.0436-.0208.0644-.0338l16.9616-10.5766c.0312.1794.0504.3616.0504.5498z" fill="#e96e14" fill-rule="evenodd"/></svg>