<svg height="59" viewBox="0 0 60 59" width="60" xmlns="http://www.w3.org/2000/svg"><g fill="#e96e14" fill-rule="evenodd"><path d="m30.0540496.22118749c-16.5357025 0-29.94446282 13.40763191-29.94446282 29.94809201 0 13.2320705 8.58 24.4580796 20.47785122 28.4181292 1.4965289.2772283 2.0459504-.6496762 2.0459504-1.4406943 0-.7141479-.0277686-3.0733159-.0406611-5.5758093-8.3305785 1.8116545-10.0884298-3.5335446-10.0884298-3.5335446-1.3621487-3.4616338-3.32479337-4.3820912-3.32479337-4.3820912-2.7168595-1.8587684.20479339-1.8205813.20479339-1.8205813 3.00694218.2107728 4.59024798 3.0862102 4.59024798 3.0862102 2.6707438 4.5784819 7.0051239 3.2548285 8.7138843 2.4895991.2687603-1.9351426 1.0447933-3.2573082 1.901157-4.0046838-6.6510744-.7572944-13.6428099-3.3252514-13.6428099-14.8007164 0-3.2697066 1.169752-5.9413142 3.0852892-8.0386279-.3109091-.7548147-1.3358678-3.8003582.2900827-7.9255545 0 0 2.5145454-.8049042 8.2368595 3.0698444 2.388595-.6635625 4.9502479-.9963356 7.4950413-1.0077422 2.5447934.0114066 5.1084297.3441797 7.5014876 1.0077422 5.7153719-3.8747486 8.2264463-3.0698444 8.2264463-3.0698444 1.6299173 4.1251963.6044628 7.1707398.2935537 7.9255545 1.92 2.0973137 3.0818182 4.7689213 3.0818182 8.0386279 0 11.5027414-7.005124 14.035487-13.6730579 14.7769114 1.0740496.9293843 2.0310744 2.7519493 2.0310744 5.5460532 0 4.0066676-.0347107 7.2317399-.0347107 8.2186527 0 .7969693.5390082 1.7308169 2.0568595 1.4367268 11.8914049-3.964513 20.4604958-15.1865546 20.4604958-28.4141617 0-16.5404601-13.4067768-29.94809201-29.9439669-29.94809201"/><path d="m11.4510744 43.2203334c-.0659504.1492767-.3.1934151-.5132232.0912522-.21719-.0976994-.3391735-.3005372-.2687603-.449814.0644628-.1532443.2990083-.1953988.5157025-.0937319.2176859.0981953.3416529.3030169.266281.4522937"/><path d="m12.6639669 44.573247c-.1428099.1324149-.4219834.0709189-.6114049-.1383662-.1958678-.2087891-.232562-.4880011-.0877686-.6223997.1472727-.132415.4180165-.070423.6143802.1383661.1958677.2112688.2340495.4884971.0847933.6223998"/><path d="m13.8446281 46.2981127c-.1834711.1274556-.4834711.007935-.6689256-.2583827-.1834711-.2663177-.1834711-.5857005.0039669-.713652.1859504-.1279515.4814876-.0128944.6694215.2514396.1829752.2702851.1829752.5901639-.0044628.7205951"/><path d="m15.4621488 47.9644579c-.1641323.1810167-.513719.1324149-.7695868-.1145612-.2618182-.2415209-.3347108-.5842127-.1700827-.7652294.1661157-.1815126.517686-.1304312.7755372.1145612.2598347.241025.3391736.5861965.1641323.7652294"/><path d="m17.6935537 48.9320292c-.0723967.2345778-.4090909.341204-.7482644.2415209-.3386777-.1026588-.5603306-.3774074-.4919009-.6144648.0704133-.2360656.4085951-.3471553.750248-.240529.3381818.1021628.5603305.3749277.4899173.6134729"/><path d="m20.1441322 49.1115581c.0084298.2469761-.2791735.4517977-.6352066.4557652-.3580165.0084309-.6476033-.1914313-.6515702-.43444 0-.2494558.281157-.4522937.6391735-.4582449.3560331-.0069431.6476033.1914313.6476033.4369197"/><path d="m22.4246281 48.7232401c.0426446.241025-.2047934.4884971-.5583471.5539606-.3476033.0639758-.6694215-.0848051-.7135537-.3238462-.0431405-.2469762.2087603-.4944483.5558677-.5584241.3540496-.061496.6709091.0833173.7160331.3283097"/></g></svg>