<svg height="60" viewBox="0 0 60 60" width="60" xmlns="http://www.w3.org/2000/svg"><g fill="#e96e14" fill-rule="evenodd"><path d="m0 30c0-16.5685433 13.4314567-30 30-30s30 13.4314567 30 30-13.4314567 30-30 30-30-13.4314567-30-30zm30.0015-16c-4.3453786 0-4.8907176.0190002-6.597402.0966677-1.7033511.0780008-2.8660299.3476703-3.8833738.7433411-1.0523443.4086709-1.9450203.9553432-2.8343629 1.8450192-.8900093.8893426-1.4366816 1.7820185-1.8466859 2.8340295-.3966708 1.0176773-.6666736 2.1806894-.7433411 3.8833738-.0763341 1.7066844-.0963343 2.2523568-.0963343 6.5977354s.0193335 4.8890509.0966677 6.5957353c.0783341 1.7033511.3480036 2.8660299.7433411 3.8833738.4090042 1.0523443.9556766 1.9450203 1.8453525 2.8343629.8890093.8900093 1.7816852 1.438015 2.8333629 1.8466859 1.0180106.3956708 2.1810227.6653403 3.8840404.7433411 1.7066845.0776674 2.2516901.0966676 6.5967354.0966676 4.3457119 0 4.8893843-.0190002 6.5960687-.0966676 1.7033511-.0780008 2.8673632-.3476703 3.8853738-.7433411 1.052011-.4086709 1.9433536-.9566766 2.8323628-1.8466859.8900093-.8893426 1.4366817-1.7820186 1.8466859-2.8340295.3933375-1.0176773.6633403-2.1806894.7433411-3.8833738.0766675-1.7066845.0966677-2.2506901.0966677-6.5960687s-.0200002-4.8907176-.0966677-6.5974021c-.0800008-1.7033511-.3500036-2.8660298-.7433411-3.8833738-.4100042-1.0523443-.9566766-1.9450202-1.8466859-2.8343628-.8900092-.8900093-1.7800185-1.4366817-2.8333628-1.8450192-1.0200106-.3956708-2.1833561-.6653403-3.8867072-.7433411-1.7066844-.0776675-2.2500234-.0966677-6.5967353-.0966677z"/><path d="m28.5661517 16.8833634c.4260045-.0006667.9013428 0 1.4353483 0 4.2720445 0 4.7783831.0153335 6.4654007.0920009 1.5600162.0713341 2.4066917.3320035 2.9706976.5510058.7466745.290003 1.2790133.6366733 1.8386858 1.1966791.5600059.5600058.9066761 1.0933447 1.1973458 1.8400192.2190023.5633392.480005 1.4100147.5510058 2.9700309.0766674 1.6866842.0933343 2.1933562.0933343 6.4634007 0 4.2700444-.0166669 4.7767164-.0933343 6.4634006-.0713341 1.5600163-.3320035 2.4066918-.5510058 2.970031-.290003.7466744-.6373399 1.2783466-1.1973458 1.8380191-.5600058.5600058-1.091678.9066761-1.8386858 1.1966791-.5633392.2200023-1.4106814.480005-2.9706976.5513391-1.6866842.0766675-2.1933562.0933343-6.4654007.0933343-4.2723778 0-4.7787164-.0166668-6.4654007-.0933343-1.5600162-.0720007-2.4066917-.3326701-2.9710309-.5516724-.7466745-.290003-1.2800133-.6366733-1.8400192-1.1966791-.5600058-.5600059-.9066761-1.0920114-1.1973458-1.8390192-.2190023-.5633392-.480005-1.4100147-.5510057-2.9700309-.0766675-1.6866843-.092001-2.1933562-.092001-6.4660674s.0153335-4.7767164.092001-6.4634006c.0713341-1.5600163.3320034-2.4066918.5510057-2.9706976.290003-.7466745.63734-1.2800134 1.1973458-1.8400192.5600059-.5600059 1.0933447-.9066761 1.8400192-1.1973458.5640059-.2200023 1.4110147-.480005 2.9710309-.5516724 1.4760154-.0666674 2.0480214-.0866676 5.0300524-.090001zm9.9761039 2.6566943c-1.060011 0-1.92002.859009-1.92002 1.9193533 0 1.0600111.860009 1.92002 1.92002 1.92002 1.0600111 0 1.92002-.8600089 1.92002-1.92002 0-1.060011-.8600089-1.92002-1.92002-1.92002zm-8.5407556 2.2433567c-4.5377139 0-8.2167522 3.6790383-8.2167522 8.2167523 0 4.5377139 3.6790383 8.2150855 8.2167522 8.2150855 4.537714 0 8.2154189-3.6773716 8.2154189-8.2150855 0-4.537714-3.6780383-8.2167523-8.2157522-8.2167523z"/><path d="m30.0015 24.6667778c2.945364 0 5.3333889 2.3876915 5.3333889 5.3333889 0 2.945364-2.3880249 5.3333889-5.3333889 5.3333889-2.9456973 0-5.3333889-2.3880249-5.3333889-5.3333889 0-2.9456974 2.3876916-5.3333889 5.3333889-5.3333889z"/></g></svg>