<svg height="60" viewBox="0 0 60 60" width="60" xmlns="http://www.w3.org/2000/svg"><path d="m0 30c0-16.5685433 13.4314567-30 30-30s30 13.4314567 30 30-13.4314567 30-30 30-30-13.4314567-30-30zm21.2006775-5.1526896h-6.7986561v20.4271393h6.7986561zm.4477766-6.3189383c-.044126-2.002868-1.4763867-3.5283721-3.8021641-3.5283721s-3.84629 1.5255041-3.84629 3.5283721c0 1.9613818 1.475572 3.5308125 3.7580381 3.5308125h.0434471c2.3705822 0 3.8469689-1.5694307 3.8469689-3.5308125zm24.0707779 15.0337802c0-6.2743337-3.3539801-9.1945107-7.8278092-9.1945107-3.6096391 0-5.2257353 1.9826672-6.1280772 3.373544v-2.8933329h-6.7994707c.0896097 1.9167771 0 20.4271393 0 20.4271393h6.7994707v-11.4081999c0-.6104999.044126-1.2195084.2238883-1.6566063.4913595-1.219644 1.6101223-2.4824013 3.4883946-2.4824013 2.4611423 0 3.4449475 1.8731216 3.4449475 4.6181341v10.9285311h6.7983845z" fill="#e96e14" fill-rule="evenodd"/></svg>