<svg style="display:none;" xmlns="http://www.w3.org/2000/svg" xmlns:xlink="http://www.w3.org/1999/xlink">
<!--
    <symbol id="tomas" viewBox="0 0 350 520">
        <title>tomas</title>
        <path d="M322.524633,276.369956 C321.870908,284.249411 320.290082,327.064593 278.08084,335.124312 C230.304239,344.246642 208.251123,323.684634 203.822433,297.166783 C201.86839,285.47094 195.483279,255.051312 205.125129,245.691791 C214.764602,236.332271 247.854973,227.753106 289.023009,232.693775 C329.204514,237.513477 323.494523,264.66937 322.524633,276.369956 Z M150.321578,297.166783 C145.892888,323.684634 123.839772,344.246642 76.0631711,335.124312 C33.8539298,327.064593 32.2707267,284.249411 31.6170017,276.369956 C30.6471115,264.66937 24.9394978,237.513477 65.1210029,232.693775 C106.286661,227.753106 139.377033,236.332271 149.018883,245.691791 C158.658355,255.051312 152.275622,285.47094 150.321578,297.166783 Z M348.782984,246.261047 C348.419275,244.614948 347.240193,243.303287 345.692647,242.629667 C330.690252,236.08085 307.505598,221.161594 257.670357,223.137387 C219.625939,224.645916 194.370758,233.813313 183.364406,238.735006 C179.33746,240.537651 174.804174,240.537651 170.777228,238.735006 C159.773253,233.813313 134.518073,224.645916 96.4736546,223.137387 C46.6384139,221.161594 23.4537591,236.08085 8.45136433,242.629667 C6.90381893,243.303287 5.72473672,244.614948 5.35865072,246.261047 C4.3768746,250.691758 3.64232541,248.187031 11.1589745,257.933171 C12.119356,259.178419 13.662147,259.856783 15.2382186,259.856783 L20.7390174,259.856783 C20.7390174,259.856783 23.517943,316.144361 47.8365136,332.783246 C72.1550841,349.42213 111.875416,348.691585 130.172585,339.370014 C143.075928,332.797477 152.059298,322.384832 156.573567,306.787213 C161.090212,291.187221 160.555346,256.797031 177.072006,256.797031 C191.822419,256.797031 193.051422,291.187221 197.568068,306.787213 C202.084714,322.384832 211.065707,332.797477 223.971427,339.370014 C242.268596,348.691585 281.988927,349.42213 306.307498,332.783246 C330.626069,316.144361 333.404994,259.856783 333.404994,259.856783 L338.905793,259.856783 C340.481865,259.856783 342.024656,259.178419 342.985037,257.933171 C350.501686,248.187031 349.767137,245.947956 348.782984,241.517246 L348.782984,246.261047 Z" id="Fill-362"></path>
        <path d="M109.706943,268.911884 L96.6015396,281.392826 L101.926427,264.165711 C100.229119,263.643893 98.4676274,263.280992 96.6015396,263.280992 C86.5745865,263.280992 78.4470017,271.390521 78.4470017,281.392826 C78.4470017,291.397504 86.5745865,299.504661 96.6015396,299.504661 C106.626116,299.504661 114.751323,291.397504 114.751323,281.392826 C114.751323,276.544661 112.816297,272.16376 109.706943,268.911884" id="Fill-112"></path>
        <path d="M273.732492,268.911884 L260.627089,281.392826 L265.951976,264.165711 C264.254668,263.643893 262.493176,263.280992 260.627089,263.280992 C250.600135,263.280992 242.472551,271.390521 242.472551,281.392826 C242.472551,291.397504 250.600135,299.504661 260.627089,299.504661 C270.651665,299.504661 278.776872,291.397504 278.776872,281.392826 C278.776872,276.544661 276.841846,272.16376 273.732492,268.911884" id="Fill-112-Copy"></path>
        <path d="M0.303244183,274.689835 C2.92052142,294.020826 16.1495385,333.204628 18.7002547,338.42281 C21.2485936,343.664711 36.7573282,348.527107 42.9998078,347.364876 C42.9998078,347.364876 23.8468535,337.379174 21.5005749,330.595537 C19.1542964,323.811901 -4.93368748,262.664298 12.8714047,259.533388 L12.8714047,253.793388 C12.8714047,253.793388 -2.31403306,255.358843 0.303244183,274.689835 Z" id="Fill-198"></path>
        <path d="M327.705373,328.057603 C324.565115,334.461736 315.465263,336.098347 315.465263,336.098347 L315.465263,344.376281 C315.465263,344.376281 329.53818,341.506281 332.419324,329.480744 C335.298091,317.478926 350.745019,251.895868 349.437569,251.37405 C348.127742,250.852231 346.556425,250.591322 343.939148,251.37405 C343.939148,251.37405 330.848007,321.653471 327.705373,328.057603 Z" id="Fill-199"></path>
        <path d="M160.37182,350.899008 C157.697491,352.203554 155.484335,352.986281 158.974038,355.073554 C162.466118,357.160826 172.588158,362.379008 181.664238,361.691157 C190.740319,361.003306 197.375033,356.11719 201.214182,350.899008 C201.214182,350.899008 186.119077,358.963471 179.180083,356.330661 C172.238712,353.674132 163.096071,349.547025 160.37182,350.899008" id="Fill-44"></path>
        <path d="M123.529996,373.355048 C123.529996,373.355048 102.648576,379.510736 98.8094278,383.685281 C94.9679019,387.859827 91.3072954,387.633891 92.7573764,383.815131 C94.6543675,378.786701 115.499875,373.355048 123.529996,373.355048 Z" id="Fill-47" transform="translate(107.981518, 380.051426) rotate(-15.000000) translate(-107.981518, -380.051426) "></path>
        <path d="M266.711814,373.355048 C266.711814,373.355048 245.830395,379.510736 241.991246,383.685281 C238.14972,387.859827 234.489114,387.633891 235.939195,383.815131 C237.836186,378.786701 258.681693,373.355048 266.711814,373.355048 Z" id="Fill-47-Copy" transform="translate(251.163336, 380.051426) scale(-1, 1) rotate(-15.000000) translate(-251.163336, -380.051426) "></path>
        <path d="M254.274398,15.3620476 C229.1357,3.59741948 197.338515,-2.28489458 157.351939,0.822295507 C-38.7726971,16.1684939 13.4325939,240.313122 13.4325939,240.313122 L17.119603,240.265684 C17.0886997,240.099651 35.1243785,236.945023 35.1243785,236.945023 C35.1243785,236.945023 -12.7425556,11.278759 150.220393,80.1350399 C152.932432,78.9891464 188.352749,104.307251 188.352749,104.307251 L228.376605,126.988188 C228.376605,126.988188 253.284326,134.484882 264.976849,134.117142 C276.669372,133.749402 297.863907,124.802751 297.863907,124.802751 C297.863907,124.802751 302.983815,111.396573 312.943758,134.117142 C332.373378,178.439889 322.097774,236.945023 322.097774,236.945023 L343.789559,240.313122 C351.465479,199.46899 322.097774,72.2402294 322.097774,72.2402294 C307.613605,40.6227914 280.758581,23.9957666 254.274398,15.3620476 Z" id="Fill-202"></path>
        <path d="M303.716615,426.739835 L303.05398,427.552738 C279.009061,457.277923 229.406402,517.774311 178.044129,515.74205 C134.29943,514.007856 79.7007925,466.765526 55.6558732,437.040341 L54.9932392,436.227438 C38.1368109,415.417099 44.3885501,368.904518 41.0645177,345.736758 C38.6746906,344.246436 36.7112304,342.810305 35.1632742,341.482562 C36.3201678,352.104506 29.1287923,410.756449 51.8267184,438.774537 C76.9497758,469.827463 133.699258,518.587214 178.166336,519.969152 C232.002623,518.180763 281.760079,460.33986 306.883135,429.286934 C328.331834,402.786267 319.184212,353.484579 320.919552,338.906505 C318.668226,340.234247 316.726491,341.263925 315.110642,342.049733 C311.699707,365.515558 320.315049,406.227561 303.716615,426.739835 Z" id="Fill-243"></path>
        <path d="M231.099105,411.859499 C235.691821,410.17545 189.494541,418.526996 181.538113,418.526996 C173.579308,418.526996 131.085423,410.555139 130.823933,412.642412 C130.688344,413.714964 146.378918,420.001893 164.633292,420.582748 C181.903465,421.132287 200.699613,420.713744 208.336222,417.911727" id="Fill-211"></path>
    </symbol>
-->
    <symbol id="tomas" viewBox="0 0 350 520" transform="translate(545.000000, 241.000000)">
        <title>tomas</title>
        <path d="M322.524633,276.369956 C321.870908,284.249411 320.290082,327.064593 278.08084,335.124312 C230.304239,344.246642 208.251123,323.684634 203.822433,297.166783 C201.86839,285.47094 195.483279,255.051312 205.125129,245.691791 C214.764602,236.332271 247.854973,227.753106 289.023009,232.693775 C329.204514,237.513477 323.494523,264.66937 322.524633,276.369956 Z M150.321578,297.166783 C145.892888,323.684634 123.839772,344.246642 76.0631711,335.124312 C33.8539298,327.064593 32.2707267,284.249411 31.6170017,276.369956 C30.6471115,264.66937 24.9394978,237.513477 65.1210029,232.693775 C106.286661,227.753106 139.377033,236.332271 149.018883,245.691791 C158.658355,255.051312 152.275622,285.47094 150.321578,297.166783 Z M348.782984,246.261047 C348.419275,244.614948 347.240193,243.303287 345.692647,242.629667 C330.690252,236.08085 307.505598,221.161594 257.670357,223.137387 C219.625939,224.645916 194.370758,233.813313 183.364406,238.735006 C179.33746,240.537651 174.804174,240.537651 170.777228,238.735006 C159.773253,233.813313 134.518073,224.645916 96.4736546,223.137387 C46.6384139,221.161594 23.4537591,236.08085 8.45136433,242.629667 C6.90381893,243.303287 5.72473672,244.614948 5.35865072,246.261047 C4.3768746,250.691758 3.64232541,248.187031 11.1589745,257.933171 C12.119356,259.178419 13.662147,259.856783 15.2382186,259.856783 L20.7390174,259.856783 C20.7390174,259.856783 23.517943,316.144361 47.8365136,332.783246 C72.1550841,349.42213 111.875416,348.691585 130.172585,339.370014 C143.075928,332.797477 152.059298,322.384832 156.573567,306.787213 C161.090212,291.187221 160.555346,256.797031 177.072006,256.797031 C191.822419,256.797031 193.051422,291.187221 197.568068,306.787213 C202.084714,322.384832 211.065707,332.797477 223.971427,339.370014 C242.268596,348.691585 281.988927,349.42213 306.307498,332.783246 C330.626069,316.144361 333.404994,259.856783 333.404994,259.856783 L338.905793,259.856783 C340.481865,259.856783 342.024656,259.178419 342.985037,257.933171 C350.501686,248.187031 349.767137,245.947956 348.782984,241.517246 L348.782984,246.261047 Z" id="Fill-362"></path>
        <path d="M109.706943,268.911884 L96.6015396,281.392826 L101.926427,264.165711 C100.229119,263.643893 98.4676274,263.280992 96.6015396,263.280992 C86.5745865,263.280992 78.4470017,271.390521 78.4470017,281.392826 C78.4470017,291.397504 86.5745865,299.504661 96.6015396,299.504661 C106.626116,299.504661 114.751323,291.397504 114.751323,281.392826 C114.751323,276.544661 112.816297,272.16376 109.706943,268.911884" id="Fill-112"></path>
        <path d="M273.732492,268.911884 L260.627089,281.392826 L265.951976,264.165711 C264.254668,263.643893 262.493176,263.280992 260.627089,263.280992 C250.600135,263.280992 242.472551,271.390521 242.472551,281.392826 C242.472551,291.397504 250.600135,299.504661 260.627089,299.504661 C270.651665,299.504661 278.776872,291.397504 278.776872,281.392826 C278.776872,276.544661 276.841846,272.16376 273.732492,268.911884" id="Fill-112-Copy"></path>
        <path d="M0.303244183,274.689835 C2.92052142,294.020826 16.1495385,333.204628 18.7002547,338.42281 C21.2485936,343.664711 36.7573282,348.527107 42.9998078,347.364876 C42.9998078,347.364876 23.8468535,337.379174 21.5005749,330.595537 C19.1542964,323.811901 -4.93368748,262.664298 12.8714047,259.533388 L12.8714047,253.793388 C12.8714047,253.793388 -2.31403306,255.358843 0.303244183,274.689835 Z" id="Fill-198"></path>
        <path d="M327.705373,328.057603 C324.565115,334.461736 315.465263,336.098347 315.465263,336.098347 L315.465263,344.376281 C315.465263,344.376281 329.53818,341.506281 332.419324,329.480744 C335.298091,317.478926 350.745019,251.895868 349.437569,251.37405 C348.127742,250.852231 346.556425,250.591322 343.939148,251.37405 C343.939148,251.37405 330.848007,321.653471 327.705373,328.057603 Z" id="Fill-199"></path>
        <path d="M160.37182,350.899008 C157.697491,352.203554 155.484335,352.986281 158.974038,355.073554 C162.466118,357.160826 172.588158,362.379008 181.664238,361.691157 C190.740319,361.003306 197.375033,356.11719 201.214182,350.899008 C201.214182,350.899008 186.119077,358.963471 179.180083,356.330661 C172.238712,353.674132 163.096071,349.547025 160.37182,350.899008" id="Fill-44"></path>
        <path d="M123.529996,373.355048 C123.529996,373.355048 102.648576,379.510736 98.8094278,383.685281 C94.9679019,387.859827 91.3072954,387.633891 92.7573764,383.815131 C94.6543675,378.786701 115.499875,373.355048 123.529996,373.355048 Z" id="Fill-47" transform="translate(107.981518, 380.051426) rotate(-15.000000) translate(-107.981518, -380.051426) "></path>
        <path d="M266.711814,373.355048 C266.711814,373.355048 245.830395,379.510736 241.991246,383.685281 C238.14972,387.859827 234.489114,387.633891 235.939195,383.815131 C237.836186,378.786701 258.681693,373.355048 266.711814,373.355048 Z" id="Fill-47-Copy" transform="translate(251.163336, 380.051426) scale(-1, 1) rotate(-15.000000) translate(-251.163336, -380.051426) "></path>
        <path d="M254.274398,15.3620476 C229.1357,3.59741948 197.338515,-2.28489458 157.351939,0.822295507 C-38.7726971,16.1684939 13.4325939,240.313122 13.4325939,240.313122 L17.119603,240.265684 C17.0886997,240.099651 35.1243785,236.945023 35.1243785,236.945023 C35.1243785,236.945023 -12.7425556,11.278759 150.220393,80.1350399 C152.932432,78.9891464 188.352749,104.307251 188.352749,104.307251 L228.376605,126.988188 C228.376605,126.988188 253.284326,134.484882 264.976849,134.117142 C276.669372,133.749402 297.863907,124.802751 297.863907,124.802751 C297.863907,124.802751 302.983815,111.396573 312.943758,134.117142 C332.373378,178.439889 322.097774,236.945023 322.097774,236.945023 L343.789559,240.313122 C351.465479,199.46899 322.097774,72.2402294 322.097774,72.2402294 C307.613605,40.6227914 280.758581,23.9957666 254.274398,15.3620476 Z" id="Fill-202"></path>
        <path d="M303.716615,426.739835 L303.05398,427.552738 C279.009061,457.277923 229.406402,517.774311 178.044129,515.74205 C134.29943,514.007856 79.7007925,466.765526 55.6558732,437.040341 L54.9932392,436.227438 C38.1368109,415.417099 44.3885501,368.904518 41.0645177,345.736758 C38.6746906,344.246436 36.7112304,342.810305 35.1632742,341.482562 C36.3201678,352.104506 29.1287923,410.756449 51.8267184,438.774537 C76.9497758,469.827463 133.699258,518.587214 178.166336,519.969152 C232.002623,518.180763 281.760079,460.33986 306.883135,429.286934 C328.331834,402.786267 319.184212,353.484579 320.919552,338.906505 C318.668226,340.234247 316.726491,341.263925 315.110642,342.049733 C311.699707,365.515558 320.315049,406.227561 303.716615,426.739835 Z" id="Fill-243"></path>
        <path d="M231.099105,411.859499 C235.691821,410.17545 189.494541,418.526996 181.538113,418.526996 C173.579308,418.526996 131.085423,410.555139 130.823933,412.642412 C130.688344,413.714964 146.378918,420.001893 164.633292,420.582748 C181.903465,421.132287 200.699613,420.713744 208.336222,417.911727" id="Fill-211"></path>
    </symbol>
</svg>

<svg xmlns="http://www.w3.org/2000/svg" xmlns:xlink="http://www.w3.org/1999/xlink">
    <use xlink:href="#tomas"/> <!-- this is our visible icon -->
</svg>