<svg height="85" viewBox="0 0 322 85" width="322" xmlns="http://www.w3.org/2000/svg"><g fill="#06457f" fill-rule="evenodd"><path d="m135.93029 50.1164474c-6.046511 0-10.960138-4.9277632-10.960138-10.9828948 0-6.0506579 4.913627-10.9717105 10.960138-10.9717105 6.048744 0 10.97131 4.9210526 10.97131 10.9717105 0 6.0551316-4.922566 10.9828948-10.97131 10.9828948zm0-33.9217106c-12.631531 0-22.914621 10.2917106-22.914621 22.9388158 0 12.651579 10.28309 22.9432895 22.914621 22.9432895 3.970676 0 7.7112-1.0155263 10.97131-2.8005263v2.7826316c0 6.0506579-4.922566 10.978421-10.97131 10.978421-3.300331 0-5.970538 2.6730263-5.970538 5.9813158 0 3.2993421 2.670207 5.9768421 5.970538 5.9768421 12.642703 0 22.925793-10.285 22.925793-22.9365789v-22.9253948c0-12.6471052-10.28309-22.9388158-22.925793-22.9388158z"/><path d="m22.9146207 50.1164474c-6.0465104 0-10.9623724-4.9277632-10.9623724-10.9828948 0-6.0506579 4.915862-10.9717105 10.9623724-10.9717105 6.0465103 0 10.9623724 4.9210526 10.9623724 10.9717105 0 6.0551316-4.9158621 10.9828948-10.9623724 10.9828948zm0-33.9217106c-12.636 0-22.9146207 10.2917106-22.9146207 22.9388158v32.6534211c0 3.3060526 2.6702069 5.9790789 5.97277241 5.9790789 3.3048 0 5.97947589-2.6730263 5.97947589-5.9790789v-12.5106579c3.2556414 1.7872368 6.993931 2.8005263 10.9623724 2.8005263 12.6337655 0 22.9146207-10.2917105 22.9146207-22.9432895 0-12.6471052-10.2808552-22.9388158-22.9146207-22.9388158z"/><path d="m87.2476138 16.1947368c-12.6382345 0-22.9146207 10.2917106-22.9146207 22.9388158v16.9597369c0 3.3082894 2.6746759 5.9835526 5.9727724 5.9835526 3.3048 0 5.9794759-2.6752632 5.9794759-5.9835526v-16.9597369c0-6.0506579 4.915862-10.9717105 10.9623724-10.9717105 6.0465103 0 10.9668414 4.9210526 10.9668414 10.9717105v16.9597369c0 3.3082894 2.6724418 5.9835526 5.9772418 5.9835526 3.298096 0 5.970537-2.6752632 5.970537-5.9835526v-16.9597369c0-12.6471052-10.2786202-22.9388158-22.9146202-22.9388158"/><path d="m233.306814 49.9128947c-6.046511 0-10.966842-4.9232894-10.966842-10.9761842 0-6.0551316 4.920331-10.9739473 10.966842-10.9739473 6.044276 0 10.964607 4.9188157 10.964607 10.9739473 0 6.0528948-4.920331 10.9761842-10.964607 10.9761842zm0-33.9194736c-12.640469 0-22.921324 10.2939473-22.921324 22.9432894s10.280855 22.9388158 22.921324 22.9388158c12.631531 0 22.916855-10.2894737 22.916855-22.9388158s-10.285324-22.9432894-22.916855-22.9432894z"/><path d="m184.617434 50.1164474c-6.044275 0-10.962372-4.9277632-10.962372-10.9828948 0-6.0506579 4.918097-10.9717105 10.962372-10.9717105 6.048745 0 10.969076 4.9210526 10.969076 10.9717105 0 6.0551316-4.920331 10.9828948-10.969076 10.9828948zm16.941849-49.61539477c-3.298097 0-5.972773 2.6775-5.972773 5.98131579v12.51513158c-3.262344-1.7872368-6.993931-2.8027632-10.969076-2.8027632-12.636 0-22.916855 10.2917106-22.916855 22.9388158 0 12.651579 10.280855 22.9432895 22.916855 22.9432895 12.640469 0 22.916856-10.2917105 22.916856-22.9432895v-32.65118418c0-3.30381579-2.672442-5.98131579-5.975007-5.98131579z"/><path d="m54.6599172 16.1947368c-3.300331 0-5.9772413 2.6775-5.9772413 5.9857895v33.9127632c0 3.3082894 2.6769103 5.9835526 5.9772413 5.9835526 3.3003311 0 5.9772414-2.6752632 5.9772414-5.9835526v-33.9127632c0-3.3082895-2.6769103-5.9857895-5.9772414-5.9857895"/><path d="m48.6826759 6.48236842c0 3.30605263 2.6769103 5.98355268 5.9772413 5.98355268 3.3003311 0 5.9772414-2.67750005 5.9772414-5.98355268 0-3.30381579-2.6769103-5.98131579-5.9772414-5.98131579-3.300331 0-5.9772413 2.6775-5.9772413 5.98131579"/><path d="m290.460414 61.88c3.298096 0 5.975007-2.6775 5.975007-5.9880263v-25.4351316c0-1.3778947 1.119476-2.4940789 2.498151-2.4940789 6.048745 0 10.964607 4.9188157 10.964607 10.9739473v16.9552632c0 3.3105263 2.674676 5.9880263 5.975007 5.9880263s5.977242-2.6775 5.977242-5.9880263v-16.9552632c0-12.6493421-10.280856-22.9432894-22.916856-22.9432894-3.00091 0-5.854344.5994736-8.473158 1.6597368-2.621048-1.0602632-5.474483-1.6597368-8.470924-1.6597368-12.638235 0-22.921324 10.2939473-22.921324 22.9432894v16.9552632c0 3.3105263 2.679144 5.9880263 5.983944 5.9880263 3.291393 0 5.970538-2.6775 5.970538-5.9880263v-16.9552632c0-6.0551316 4.920331-10.9739473 10.966842-10.9739473 1.374207 0 2.493682 1.1161842 2.493682 2.4940789v25.4351316c0 3.3105263 2.674676 5.9880263 5.977242 5.9880263"/></g></svg>