<svg height="60" viewBox="0 0 60 60" width="60" xmlns="http://www.w3.org/2000/svg"><g fill="#e96e14" fill-rule="evenodd"><path d="m30 60c16.5685425 0 30-13.4314575 30-30s-13.4314575-30-30-30-30 13.4314575-30 30 13.4314575 30 30 30zm15.0799624-26.6030256c.2314205-1.0423694.3518344-2.1218338.3518344-3.2309743 0-8.3092795-6.8316087-15.0475859-15.2624647-15.0475859-.8880527 0-1.7591722.0760447-2.6095955.2207152-1.364064-.8476207-2.9783631-1.3391294-4.7074318-1.3391294-4.8899342 0-8.8523048 3.9061033-8.8523048 8.728453 0 1.6099229.4440263 3.1159799 1.215428 4.4143048-.201317.9755984-.3085606 1.9882919-.3085606 3.0232423 0 8.3129891 6.8334901 15.0494407 15.2624647 15.0494407.9557855 0 1.8889934-.0871733 2.7958608-.252246 1.2474129.660291 2.6698024 1.0368052 4.1843838 1.0368052 4.8880527 0 8.8504233-3.907958 8.8504233-8.7265983 0-1.3929171-.3311383-2.7079348-.9200376-3.8764273z"/><path d="m37.9981185 37.3587202c-.7055503.986727-1.7478833 1.7657219-3.1025399 2.3184374-1.3377235.549006-2.9407338.8290732-4.7676388.8290732-2.1919097 0-4.0301035-.3802237-5.4656632-1.1313974-1.0253998-.5452965-1.8701788-1.283487-2.5117592-2.1997334-.6491063-.919956-.9764817-1.8343477-.9764817-2.7190634 0-.5490059.2144873-1.0275314.6359361-1.4188836.4176858-.3894975.953904-.5842463 1.593603-.5842463.523048 0 .9764816.1539443 1.3433678.459978.3518344.2949052.6528693.7307715.8955786 1.2890512.2709313.6120675.5644402 1.1276879.8748824 1.5301687.3010348.3932069.7318908.7214977 1.2812794.9793079.5531514.2559555 1.300094.3894975 2.2163687.3894975 1.2624648 0 2.2972719-.267084 3.074318-.7901235.7619944-.5100562 1.130762-1.1258332 1.130762-1.8788616 0-.5916652-.1937912-1.0590622-.5888993-1.4263027-.4176858-.3820785-.9651929-.6788385-1.6293509-.8865704-.6942616-.2114415-1.6349953-.4432853-2.7996237-.6844028-1.5860772-.3338549-2.9313265-.7289167-4-1.1796209-1.0950141-.4581232-1.9774224-1.0943024-2.6227658-1.8899901-.6547507-.8105257-.9877705-1.8250739-.9877705-3.0176781 0-1.135107.3480715-2.1607837 1.0366887-3.0436446.6810912-.8772967 1.678269-1.5635542 2.9633113-2.0290964 1.2662277-.4618327 2.7714017-.6955312 4.4778928-.6955312 1.3621825 0 2.5606773.155799 3.5616181.4636875 1.0065851.3078885 1.8532455.7233524 2.519285 1.2371182.6716839.5193299 1.1721543 1.0701906 1.4844779 1.6451631.3160865.5805367.4778928 1.1573639.4778928 1.7156437 0 .5378774-.2107244 1.0275314-.6265287 1.4522691-.4176858.430302-.9463782.6473078-1.5672625.6473078-.5644403 0-1.0084666-.1372515-1.3132644-.4043355-.285983-.2503913-.5832549-.6398887-.9125117-1.1963137-.3800565-.712224-.841016-1.2742132-1.3697084-1.6711297-.5136406-.3857879-1.3697084-.5786819-2.5493885-.5786819-1.0912512 0-1.9830668.215151-2.6434619.6435982-.635936.4098997-.9463782.8828609-.9463782 1.4429954 0 .341274.0997178.6287602.3066792.8735872.2144873.2633745.5211665.489654.9087489.682548.4007525.1984582.8146754.3579667 1.2285983.4692517.4233302.1168492 1.1345249.289341 2.1110065.511911 1.2361242.2596649 2.3706492.5545702 3.3734714.8717324 1.0178739.319017 1.8946378.712224 2.6133584 1.1740567.7300094.4692517 1.3076199 1.0701907 1.7196613 1.7898337.4120414.7252072.6208843 1.6154871.6208843 2.6522923 0 1.2389729-.3612418 2.3685156-1.0686736 3.3570973z"/></g></svg>