<svg height="520" viewBox="0 0 350 520" width="350" xmlns="http://www.w3.org/2000/svg"><g fill="#06457f" fill-rule="evenodd"><path d="m322.524633 276.369956c-.653725 7.879455-2.234551 50.694637-44.443793 58.754356-47.776601 9.12233-69.829717-11.439678-74.258407-37.957529-1.954043-11.695843-8.339154-42.115471 1.302696-51.474992 9.639473-9.35952 42.729844-17.938685 83.89788-12.998016 40.181505 4.819702 34.471514 31.975595 33.501624 43.676181zm-172.203055 20.796827c-4.42869 26.517851-26.481806 47.079859-74.2584069 37.957529-42.2092413-8.059719-43.7924444-50.874901-44.4461694-58.754356-.9698902-11.700586-6.6775039-38.856479 33.5040012-43.676181 41.1656581-4.940669 74.2560301 3.638496 83.8978801 12.998016 9.639472 9.359521 3.256739 39.779149 1.302695 51.474992zm198.461406-50.905736c-.363709-1.646099-1.542791-2.95776-3.090337-3.63138-15.002395-6.548817-38.187049-21.468073-88.02229-19.49228-38.044418 1.508529-63.299599 10.675926-74.305951 15.597619-4.026946 1.802645-8.560232 1.802645-12.587178 0-11.003975-4.921693-36.259155-14.08909-74.3035734-15.597619-49.8352407-1.975793-73.0198955 12.943463-88.02229027 19.49228-1.5475454.67362-2.72662761 1.985281-3.09271361 3.63138-.98177612 4.430711-1.71632531 1.925984 5.80032378 11.672124.9603815 1.245248 2.5031725 1.923612 4.0792441 1.923612h5.5007988s2.7789256 56.287578 27.0974962 72.926463c24.3185705 16.638884 64.0389024 15.908339 82.3360714 6.586768 12.903343-6.572537 21.886713-16.985182 26.400982-32.582801 4.516645-15.599992 3.981779-49.990182 20.498439-49.990182 14.750413 0 15.979416 34.39019 20.496062 49.990182 4.516646 15.597619 13.497639 26.010264 26.403359 32.582801 18.297169 9.321571 58.0175 10.052116 82.336071-6.586768 24.318571-16.638885 27.097496-72.926463 27.097496-72.926463h5.500799c1.576072 0 3.118863-.678364 4.079244-1.923612 7.516649-9.74614 6.7821-11.985215 5.797947-16.415925z"/><path d="m109.706943 268.911884-13.1054034 12.480942 5.3248874-17.227115c-1.697308-.521818-3.4587996-.884719-5.3248874-.884719-10.0269531 0-18.1545379 8.109529-18.1545379 18.111834 0 10.004678 8.1275848 18.111835 18.1545379 18.111835 10.0245764 0 18.1497834-8.107157 18.1497834-18.111835 0-4.848165-1.935026-9.229066-5.04438-12.480942"/><path d="m273.732492 268.911884-13.105403 12.480942 5.324887-17.227115c-1.697308-.521818-3.4588-.884719-5.324887-.884719-10.026954 0-18.154538 8.109529-18.154538 18.111834 0 10.004678 8.127584 18.111835 18.154538 18.111835 10.024576 0 18.149783-8.107157 18.149783-18.111835 0-4.848165-1.935026-9.229066-5.04438-12.480942"/><path d="m.30324418 274.689835c2.61727724 19.330991 15.84629432 58.514793 18.39701052 63.732975 2.5483389 5.241901 18.0570735 10.104297 24.2995531 8.942066 0 0-19.1529543-9.985702-21.4992329-16.769339-2.3462785-6.783636-26.43426238-67.931239-8.6291702-71.062149v-5.74s-15.18543776 1.565455-12.56816052 20.896447z"/><path d="m327.705373 328.057603c-3.140258 6.404133-12.24011 8.040744-12.24011 8.040744v8.277934s14.072917-2.87 16.954061-14.895537c2.878767-12.001818 18.325695-77.584876 17.018245-78.106694-1.309827-.521819-2.881144-.782728-5.498421 0 0 0-13.091141 70.279421-16.233775 76.683553z"/><path d="m160.37182 350.899008c-2.674329 1.304546-4.887485 2.087273-1.397782 4.174546 3.49208 2.087272 13.61412 7.305454 22.6902 6.617603 9.076081-.687851 15.710795-5.573967 19.549944-10.792149 0 0-15.095105 8.064463-22.034099 5.431653-6.941371-2.656529-16.084012-6.783636-18.808263-5.431653"/><path d="m123.529996 373.355048s-20.88142 6.155688-24.7205682 10.330233c-3.8415259 4.174546-7.5021324 3.94861-6.0520514.12985 1.8969911-5.02843 22.7424986-10.460083 30.7726196-10.460083z" transform="matrix(.96592583 -.25881905 .25881905 .96592583 -94.685166 40.897612)"/><path d="m266.711814 373.355048s-20.881419 6.155688-24.720568 10.330233c-3.841526 4.174546-7.502132 3.94861-6.052051.12985 1.896991-5.02843 22.742498-10.460083 30.772619-10.460083z" transform="matrix(-.96592583 -.25881905 -.25881905 .96592583 592.133036 77.955793)"/><path d="m254.274398 15.3620476c-25.138698-11.76462812-56.935883-17.64694218-96.922459-14.53975209-196.1246361 15.34619839-143.9193451 239.49082649-143.9193451 239.49082649l3.6870091-.047438c-.0309033-.166033 18.0047755-3.320661 18.0047755-3.320661s-47.8669341-225.666264 115.0960145-156.8099831c2.712039-1.1458935 38.132356 24.1722111 38.132356 24.1722111l40.023856 22.680937s24.907721 7.496694 36.600244 7.128954 32.887058-9.314391 32.887058-9.314391 5.119908-13.406178 15.079851 9.314391c19.42962 44.322747 9.154016 102.827881 9.154016 102.827881l21.691785 3.368099c7.67592-40.844132-21.691785-168.0728926-21.691785-168.0728926-14.484169-31.617438-41.339193-48.2444628-67.823376-56.8781818z"/><path d="m303.716615 426.739835-.662635.812903c-24.044919 29.725185-73.647578 90.221573-125.009851 88.189312-43.744699-1.734194-98.3433365-48.976524-122.3882558-78.701709l-.662634-.812903c-16.8564283-20.810339-10.6046891-67.32292-13.9287215-90.49068-2.3898271-1.490322-4.3532873-2.926453-5.9012435-4.254196 1.1568936 10.621944-6.0344819 69.273887 16.6634442 97.291975 25.1230574 31.052926 81.8725396 79.812677 126.3396176 81.194615 53.836287-1.788389 103.593743-59.629292 128.716799-90.682218 21.448699-26.500667 12.301077-75.802355 14.036417-90.380429-2.251326 1.327742-4.193061 2.35742-5.80891 3.143228-3.410935 23.465825 5.204407 64.177828-11.394027 84.690102z"/><path d="m231.099105 411.859499c4.592716-1.684049-41.604564 6.667497-49.560992 6.667497-7.958805 0-50.45269-7.971857-50.71418-5.884584-.135589 1.072552 15.554985 7.359481 33.809359 7.940336 17.270173.549539 36.066321.130996 43.70293-2.671021"/></g></svg>