<svg height="66" viewBox="0 0 321 66" width="321" xmlns="http://www.w3.org/2000/svg" xmlns:xlink="http://www.w3.org/1999/xlink"><mask id="a" fill="#fff"><path d="m92.3377949 49.8352939h-92.29341702v-49.75313975h92.29341702z" fill="#fff" fill-rule="evenodd"/></mask><mask id="b" fill="#fff"><path d="m.69525346 61.5716009h124.12197254v-61.32953957h-124.12197254z" fill="#fff" fill-rule="evenodd"/></mask><g fill="#06457f" fill-rule="evenodd"><g transform="translate(0 15.403903)"><path d="m30.4410069 48.6293883h-13.237182l-17.2038249-47.29878449h14.053735l9.9081014 34.85756549h.1856475l10.1714101-34.85756549h13.4228295z" mask="url(#a)"/><path d="m89.5405092 39.3951152c0 5.5960179 1.2625507 6.8349318 2.7972857 7.377736v1.8543365h-13.6151336c-.7107857-2.2130274-.8964332-2.9267415-1.1627005-5.5828145-2.8793848 2.9355438-6.9384815 6.8349318-15.4908387 6.8349318-7.1966129 0-14.5958848-3.9881438-14.5958848-13.7798915 0-9.2540781 5.9429378-13.9574032 13.9649793-15.1222317l11.3437258-1.6863606c1.9873894-.2787373 4.4133802-1.0658034 4.4133802-3.7446155 0-5.2380605-5.0398479-5.5182648-8.2779539-5.5182648-6.3060968 0-7.3985323 3.8216349-7.7395023 6.595071h-12.1632374c1.4371037-14.50240792 11.6085139-16.54085775 21.4300784-16.54085775 6.7506152 0 19.0958018 2.03844983 19.0958018 13.70067145zm-12.3451866-13.7784245c-1.2544148.9711794-3.3312996 1.7619131-8.5516175 2.5621826-4.6855645.8024699-8.5553157 1.9643643-8.5553157 7.1158696 0 4.3725079 3.418576 5.6979771 5.8467857 5.6979771 5.5923525 0 11.2601475-3.5539005 11.2601475-9.3391663z" mask="url(#a)"/></g><path d="m97.1076774 64.0310908h12.6181106v-63.8513786h-12.6181106z"/><g transform="translate(113.903226 3.667596)"><path d="m19.7747834 13.0676444h7.8489678v8.8785163h-7.8489678v25.7127817c0 2.7580322.1065069 3.8165004 5.2314125 3.8165004.808417 0 1.7041106-.074819 2.6175553-.1672424v9.4264551c-1.9940461.0806871-3.9673825.1760446-5.9577305.1760446h-1.6175737c-10.89846774 0-12.88215898-4.0783667-12.88215898-10.2274581v-28.7370813h-6.47103456v-8.8785163h6.47103456v-12.82558307h12.60849538z" mask="url(#b)"/><path d="m76.7929631 46.4882458c-3.3187258 11.3908195-12.8836382 15.1273663-21.0743156 15.1273663-13.5071475 0-23.8671636-6.4028891-23.8671636-25.8785571 0-5.6921089 1.9725967-23.9185938 22.9699908-23.9185938 9.4495299 0 22.5136382 4.4377911 22.5136382 26.064871v2.2159614h-32.8758733c.3661175 3.5487659 1.0909563 11.5441251 11.2594079 11.5441251 3.5184262 0 7.1182119-1.7648472 8.1085783-5.1551729zm-12.420629-14.4965398c-.7204009-7.6381353-5.6766705-9.9472537-9.7268917-9.9472537-5.9518134 0-9.0952465 3.7372802-9.8200853 9.9472537z" mask="url(#b)"/><path d="m124.732908 43.1096564c-.454873 4.9035758-4.3335 18.5059557-21.905661 18.5059557-18.0026272 0-22.1556571-13.6023799-22.1556571-23.5731063 0-15.2843394 6.7683663-26.2240446 22.9692511-26.2240446 7.567168 0 20.00259 3.3602514 21.176385 18.1428637h-12.793403c-.552505-3.0235661-2.335756-7.6491381-7.749118-7.6491381h-.633864c-7.9236705 0-10.0005553 7.8288503-10.0005553 13.6962703 0 5.1507718.1812097 15.3951008 9.7313293 15.3951008 6.402249 0 8.556795-6.0471322 8.556795-8.2939015z" mask="url(#b)"/></g><path d="m287.630053 64.0332913h-12.608495v-28.7180098c0-3.475414-.179731-9.3406334-8.194376-9.3406334-5.584956 0-9.9118 3.7336127-9.9118 10.9360376v27.1226056h-12.611453v-63.85211206h12.611453v22.68334746h.173074c1.628668-3.919193 7.027977-7.3784695 13.88288-7.3784695 9.368171 0 16.658717 5.4229073 16.658717 15.8190748z"/><path d="m295.472364 64.0310908h25.224387v-8.885118h-25.224387z"/></g></svg>