<svg height="220" viewBox="0 0 148 220" width="148" xmlns="http://www.w3.org/2000/svg"><g fill="#262929" fill-rule="evenodd"><path d="m135.675203 116.518344c-.275 3.322-.94 21.373-18.696 24.771-20.0979999 3.846-29.3749999-4.823-31.2379999-16.003-.822-4.931-3.508-17.756.548-21.702 4.055-3.9459997 17.9749999-7.5629997 35.2929999-5.4799997 16.903 2.0319997 14.501 13.4809997 14.093 18.4139997zm-72.4399999 8.768c-1.863 11.18-11.14 19.849-31.238 16.003-17.756-3.398-18.422-21.449-18.697-24.771-.408-4.933-2.809-16.382 14.094-18.4139997 17.317-2.083 31.237 1.534 35.293 5.4799997 4.055 3.946 1.37 16.771.548 21.702zm83.4859999-21.462c-.153-.694-.649-1.247-1.3-1.531-6.311-2.7609997-16.064-9.0509997-37.028-8.2179997-16.0039999.636-26.6279999 4.501-31.2579999 6.5759997-1.694.76-3.601.76-5.295 0-4.629-2.0749997-15.253-5.9399997-31.257-6.5759997-20.964-.833-30.71700001 5.457-37.02800001 8.2179997-.651.284-1.147.837-1.301 1.531-.413 1.868-.722.812 2.44 4.921.404.525 1.053.811 1.716.811h2.314s1.169 23.731 11.39900001 30.746c10.23 7.015 26.939 6.707 34.636 2.777 5.428-2.771 9.207-7.161 11.106-13.737 1.9-6.577 1.675-21.076 8.623-21.076 6.205 0 6.722 14.499 8.622 21.076 1.9 6.576 5.678 10.966 11.107 13.737 7.6969999 3.93 24.4059999 4.238 34.6359999-2.777s11.399-30.746 11.399-30.746h2.314c.663 0 1.312-.286 1.716-.811 3.162-4.109 2.853-5.053 2.439-6.921z"/><path d="m46.15 113.374-5.513 5.262 2.24-7.263c-.714-.22-1.455-.373-2.24-.373-4.218 0-7.637 3.419-7.637 7.636 0 4.218 3.419 7.636 7.637 7.636 4.217 0 7.635-3.418 7.635-7.636 0-2.044-.814-3.891-2.122-5.262"/><path d="m115.15 113.374-5.513 5.262 2.24-7.263c-.714-.22-1.455-.373-2.24-.373-4.218 0-7.637 3.419-7.637 7.636 0 4.218 3.419 7.636 7.637 7.636 4.217 0 7.635-3.418 7.635-7.636 0-2.044-.814-3.891-2.122-5.262"/><path d="m.12756457 115.81c1.101 8.15 6.666 24.67 7.739 26.87 1.072 2.21 7.59600003 4.26 10.22200003 3.77 0 0-8.057-4.21-9.04400003-7.07-.987-2.86-11.12-28.64-3.63-29.96v-2.42s-6.388.66-5.287 8.81z"/><path d="m137.854565 138.31c-1.321 2.7-5.149 3.39-5.149 3.39v3.49s5.92-1.21 7.132-6.28c1.211-5.06 7.709-32.71 7.159-32.93-.551-.22-1.212-.33-2.313 0 0 0-5.507 29.63-6.829 32.33z"/><path d="m67.463 147.94c-1.125.55-2.056.88-.588 1.76 1.469.88 5.727 3.08 9.545 2.79s6.609-2.35 8.224-4.55c0 0-6.35 3.4-9.269 2.29-2.92-1.12-6.766-2.86-7.912-2.29"/><path d="m51.9648904 157.407529s-8.7841067 2.595255-10.3991067 4.355255c-1.616 1.76-3.1558933 1.664745-2.5458933.054745.798-2.12 9.567-4.41 12.945-4.41z" transform="matrix(.96592583 -.25881905 .25881905 .96592583 -39.922976 17.216371)"/><path d="m110.96489 157.407529s-8.784106 2.595255-10.399106 4.355255c-1.6160003 1.76-3.1558936 1.664745-2.5458936.054745.798-2.12 9.5669996-4.41 12.9449996-4.41z" transform="matrix(-.96592583 -.25881905 -.25881905 .96592583 246.760944 32.486695)"/><path d="m106.964638 6.47668208c-10.5750001-4.96-23.9510001-7.44-40.7720001-6.13-82.503 6.47-60.54200001 100.96999992-60.54200001 100.96999992l1.551-.02c-.013-.07 7.57400001-1.3999999 7.57400001-1.3999999s-20.13600001-95.14152585 48.417-66.1115259c1.1408631-.4831119 16.0409921 10.1910715 16.0409921 10.1910715l16.8366825 9.5623465s10.4778355 3.160627 15.3964845 3.0055867c4.918649-.1550404 13.834473-3.9269734 13.834473-3.9269734s2.153772-5.6520819 6.343583 3.9269734c8.173384 18.6865938 3.850785 43.3525212 3.850785 43.3525212l9.125 1.4199999c3.229-17.2199999-9.125-70.8599999-9.125-70.8599999-6.093-13.33-17.39-20.34-28.531-23.98000002z"/><path d="m127.763306 179.914704-.278748.342722c-10.114884 12.532221-30.9810448 38.037667-52.5874156 37.18086-18.4019151-.731141-41.369715-20.648639-51.4845992-33.18086l-.2787477-.342722c-7.0909292-8.773697-4.461034-28.383531-5.859342-38.151123-1.0053194-.628324-1.8312807-1.233801-2.4824535-1.793581.486666 4.478241-2.5385024 29.206064 7.0097473 41.018568 10.5684204 13.092 34.4410078 33.649247 53.1468035 34.231876 22.6471048-.75399 43.5783832-25.139876 54.1468032-38.231876 9.022742-11.172755 5.174647-31.958484 5.904646-38.104641-.947057.55978-1.763879.993895-2.443612 1.325194-1.434865 9.893257 2.189318 27.057551-4.793082 35.705583z"/><path d="m97.2155762 173.641113c1.932-.71-17.5016328 2.811035-20.8486328 2.811035-3.348 0-21.2237403-3.360957-21.3337403-2.480957-.0570376.452191 6.5434561 3.102778 14.222454 3.347668 7.2649773.231687 15.171881.055228 18.3843441-1.12611"/></g></svg>