<?xml version="1.0" standalone="no"?>
<!DOCTYPE svg PUBLIC "-//W3C//DTD SVG 20010904//EN"
 "http://www.w3.org/TR/2001/REC-SVG-20010904/DTD/svg10.dtd">
<svg version="1.0" xmlns="http://www.w3.org/2000/svg"
 width="16.000000pt" height="16.000000pt" viewBox="0 0 16.000000 16.000000"
 preserveAspectRatio="xMidYMid meet">
<metadata>
Created by potrace 1.11, written by Peter Selinger 2001-2013
</metadata>
<g transform="translate(0.000000,16.000000) scale(0.001444,-0.001444)"
fill="#000000" stroke="none">
<path d="M5307 11074 c-2 -2 -47 -6 -101 -9 -53 -3 -109 -7 -124 -9 -15 -3
-56 -7 -92 -11 -86 -9 -112 -12 -162 -20 -24 -4 -54 -9 -68 -11 -47 -5 -89
-12 -107 -18 -10 -3 -36 -7 -58 -11 -22 -3 -58 -10 -80 -16 -22 -6 -51 -13
-65 -16 -89 -17 -342 -92 -359 -107 -8 -6 -15 -9 -15 -7 -2 7 -74 -17 -163
-55 -17 -8 -34 -14 -37 -14 -9 0 -281 -133 -341 -167 -27 -15 -51 -31 -53 -35
-2 -5 -9 -8 -15 -8 -7 0 -38 -18 -70 -40 -31 -22 -61 -40 -66 -40 -5 0 -11 -3
-13 -7 -1 -5 -47 -41 -101 -82 -129 -97 -142 -108 -266 -231 -114 -113 -153
-156 -216 -235 -22 -27 -43 -52 -46 -55 -3 -3 -40 -55 -82 -115 -89 -130 -156
-244 -223 -381 -27 -54 -51 -101 -54 -104 -3 -3 -6 -9 -7 -15 -1 -5 -20 -52
-42 -102 -22 -51 -37 -93 -35 -93 2 0 -2 -12 -10 -27 -26 -51 -128 -382 -142
-463 -3 -14 -7 -33 -10 -42 -3 -10 -7 -30 -10 -45 -3 -16 -7 -35 -9 -43 -2 -8
-7 -31 -10 -50 -3 -19 -8 -42 -10 -50 -5 -18 -9 -42 -29 -170 -21 -134 -31
-217 -42 -355 -24 -288 -23 -826 2 -1070 2 -22 6 -71 9 -110 3 -38 7 -81 10
-95 3 -14 7 -50 10 -80 3 -30 8 -66 10 -80 6 -31 11 -69 20 -135 4 -27 9 -61
11 -75 3 -14 7 -38 9 -55 8 -49 24 -126 29 -134 8 -13 -8 -26 -63 -51 -72 -33
-96 -58 -110 -116 -13 -52 -16 -44 57 -141 20 -27 21 -33 8 -33 -9 0 -16 -4
-16 -10 0 -5 -6 -10 -13 -10 -23 0 -85 -74 -114 -135 -25 -54 -27 -71 -27
-165 0 -58 4 -121 8 -140 4 -19 12 -57 16 -85 14 -78 21 -108 25 -115 4 -6 14
-54 19 -90 1 -8 5 -22 8 -30 8 -19 38 -128 44 -157 2 -12 9 -34 14 -48 5 -14
8 -25 5 -25 -2 0 3 -17 12 -37 8 -21 15 -40 14 -43 0 -3 9 -36 21 -75 12 -38
23 -74 24 -80 1 -5 12 -39 24 -75 12 -36 23 -72 25 -80 10 -42 107 -305 130
-354 18 -38 37 -62 63 -77 20 -13 39 -26 42 -30 7 -9 187 -79 206 -79 37 0 50
-17 47 -62 -3 -62 -3 -645 1 -698 9 -122 18 -224 21 -240 2 -9 6 -41 9 -71 3
-30 8 -64 10 -75 2 -12 7 -39 10 -60 43 -285 175 -615 306 -764 12 -14 31 -38
43 -53 41 -53 142 -164 270 -295 117 -121 291 -283 397 -372 41 -35 84 -72 95
-82 60 -56 323 -256 447 -339 51 -34 103 -71 115 -82 13 -11 23 -17 23 -12 0
4 8 1 17 -7 80 -67 513 -295 653 -343 3 -1 12 -5 20 -8 29 -13 225 -76 250
-81 14 -3 57 -12 95 -21 154 -34 394 -39 505 -10 8 2 32 6 53 9 48 8 209 52
262 72 22 9 47 17 55 19 14 3 71 25 115 45 40 17 250 121 265 130 8 5 56 33
105 62 50 29 95 56 100 60 6 5 58 42 117 83 60 41 114 79 120 85 7 6 41 32 74
59 72 56 89 70 115 94 10 9 21 17 24 17 3 0 24 18 46 40 22 22 42 40 45 40 9
0 128 114 319 305 189 189 358 372 489 530 108 131 141 169 159 187 9 10 17
23 17 28 0 6 4 10 8 10 7 0 35 35 99 128 23 33 103 192 107 215 2 6 9 26 15
42 7 17 14 39 17 49 2 10 9 35 16 55 7 20 13 38 13 41 1 3 5 25 10 50 5 25 9
47 10 50 12 60 18 90 21 115 2 17 5 40 8 52 19 91 26 528 14 933 -5 149 -1
170 33 170 11 0 19 4 19 9 0 5 8 12 18 15 25 9 73 54 115 109 30 39 60 110 73
172 1 6 16 71 34 145 17 74 33 144 36 155 3 17 11 53 20 88 1 4 2 8 3 10 2 1
5 13 7 27 2 14 11 52 19 85 17 68 100 435 109 480 9 45 16 73 20 93 12 48 77
351 81 377 3 17 7 41 10 55 17 74 16 99 -4 109 -18 10 -19 13 -4 42 9 18 16
41 17 52 1 30 -47 73 -120 108 -35 16 -64 32 -64 35 0 3 16 3 35 0 29 -5 35
-3 36 12 0 9 2 26 5 37 17 89 22 377 10 575 -14 217 -23 323 -31 370 -2 14 -6
54 -9 90 -3 36 -8 76 -10 90 -3 14 -7 50 -10 80 -3 30 -7 64 -9 75 -5 20 -19
138 -23 185 -1 14 -3 26 -4 28 -4 4 -6 14 -14 82 -5 36 -10 74 -12 85 -3 11
-7 36 -10 55 -3 19 -10 62 -16 95 -5 33 -12 74 -15 90 -7 50 -41 244 -58 335
-9 47 -18 99 -20 115 -7 39 -13 70 -15 70 -1 0 -3 14 -5 30 -4 31 -12 78 -18
105 -2 8 -7 33 -11 55 -4 22 -12 60 -17 85 -9 43 -13 62 -24 120 -13 67 -44
220 -51 250 -3 14 -7 32 -8 40 -2 8 -6 29 -9 45 -15 65 -19 81 -22 100 -2 11
-12 58 -23 105 -11 47 -23 101 -27 120 -15 79 -157 333 -247 441 -21 26 -38
49 -38 52 0 22 -215 233 -337 331 -182 146 -475 310 -683 382 -30 10 -57 22
-60 26 -3 4 -17 9 -30 11 -25 4 -50 13 -120 44 -19 8 -44 19 -55 23 -11 4 -37
16 -59 25 -21 9 -44 18 -50 19 -6 1 -15 4 -21 7 -8 5 -140 51 -155 54 -3 1
-36 11 -75 22 -65 20 -259 67 -315 77 -14 2 -41 7 -60 11 -19 3 -48 8 -65 10
-16 2 -30 4 -30 5 0 1 -16 3 -35 6 -69 8 -223 26 -268 31 -57 6 -679 12 -685
7z m-1217 -1438 c32 -6 59 -10 145 -22 140 -20 477 -121 679 -204 55 -22 105
-40 112 -40 16 0 109 -50 197 -107 37 -23 72 -43 76 -43 5 0 11 -3 13 -8 2 -4
27 -23 56 -41 30 -19 59 -39 65 -45 7 -6 24 -17 40 -23 15 -7 27 -17 27 -23 0
-5 6 -10 13 -10 7 0 22 -8 33 -18 11 -11 24 -21 30 -23 5 -2 77 -50 159 -107
83 -56 153 -101 156 -100 4 2 15 -4 25 -12 11 -8 29 -21 42 -28 12 -7 87 -49
167 -95 80 -45 162 -91 183 -102 20 -11 53 -30 72 -41 19 -12 55 -33 80 -46
25 -14 86 -48 135 -75 85 -48 108 -58 152 -68 10 -2 72 -18 138 -35 263 -69
453 -99 583 -94 76 4 127 9 127 14 0 1 12 3 26 5 14 2 45 9 70 15 24 7 51 14
59 15 8 2 16 4 18 4 1 1 4 1 7 2 2 0 62 21 132 45 71 25 133 47 138 48 6 2 23
8 38 14 15 7 39 15 53 18 13 3 30 16 36 27 17 32 41 55 68 65 77 29 170 -88
280 -353 11 -26 45 -118 46 -125 0 -4 19 -67 29 -100 1 -3 4 -12 8 -20 8 -19
24 -85 32 -125 3 -16 11 -54 19 -82 8 -29 12 -53 9 -53 -3 0 0 -6 6 -13 6 -8
9 -16 6 -19 -3 -2 1 -38 9 -79 8 -41 17 -101 21 -134 4 -33 9 -73 11 -90 14
-123 18 -228 19 -490 0 -165 -4 -338 -8 -385 -4 -47 -9 -114 -12 -149 -5 -74
-15 -144 -21 -150 -2 -2 -14 1 -27 7 -70 34 -352 110 -512 137 -16 3 -41 7
-54 10 -13 2 -49 7 -80 11 -31 3 -69 8 -86 10 -209 25 -748 24 -940 -2 -16 -2
-55 -6 -85 -9 -30 -3 -70 -8 -87 -10 -18 -3 -50 -7 -70 -11 -46 -6 -149 -23
-183 -30 -14 -3 -36 -7 -50 -9 -14 -2 -54 -11 -90 -19 -36 -8 -76 -17 -90 -20
-60 -10 -375 -102 -395 -114 -5 -4 -16 -7 -23 -8 -16 -3 -129 -48 -189 -76
-55 -25 -75 -29 -151 -30 -64 0 -88 6 -202 55 -19 8 -60 23 -90 33 -30 11 -56
22 -58 27 -2 4 -14 7 -26 7 -12 0 -27 5 -34 12 -7 7 -12 9 -12 6 0 -4 -16 0
-35 8 -19 8 -35 11 -35 8 0 -4 -6 -2 -12 3 -7 6 -31 14 -53 18 -22 4 -44 10
-50 13 -5 4 -17 7 -25 9 -8 1 -31 6 -50 12 -44 13 -257 59 -307 67 -35 5 -89
13 -183 29 -19 4 -53 8 -75 10 -85 9 -142 15 -178 20 -21 3 -77 7 -123 9 -46
3 -87 7 -92 9 -9 6 -554 0 -614 -7 -119 -12 -229 -26 -248 -31 -8 -2 -33 -7
-55 -10 -42 -6 -72 -11 -115 -20 -54 -12 -71 -15 -87 -19 -36 -8 -208 -57
-223 -63 -8 -3 -19 -7 -25 -9 -5 -1 -17 -5 -26 -9 -21 -8 -31 34 -55 215 -6
49 -13 95 -18 120 -3 14 -7 57 -10 95 -4 39 -8 84 -11 100 -7 48 -15 125 -20
200 -3 39 -8 102 -11 140 -7 83 -13 697 -7 708 2 4 6 49 9 100 4 83 11 162 14
162 0 0 3 20 5 45 2 25 6 59 9 75 3 17 9 59 15 95 21 135 69 335 111 459 39
116 120 301 131 301 5 0 9 6 9 14 0 18 51 99 119 189 52 69 216 237 232 237 4
0 15 7 24 16 42 42 277 157 342 167 10 1 23 5 28 9 16 9 58 17 180 34 22 3 41
7 44 9 6 6 361 -2 401 -9z m-230 -3490 c80 -2 145 -5 145 -6 0 -1 100 -10 135
-12 8 0 33 -4 55 -8 22 -5 63 -11 90 -15 107 -13 374 -80 424 -105 9 -4 36
-16 61 -26 169 -69 265 -160 296 -279 33 -133 37 -317 9 -545 -2 -19 -7 -55
-10 -80 -2 -25 -7 -56 -10 -70 -3 -14 -8 -43 -11 -65 -10 -69 -12 -78 -29
-170 -48 -257 -135 -431 -293 -582 -103 -100 -219 -169 -369 -219 -90 -30 -80
-28 -238 -55 -79 -14 -312 -17 -425 -6 -334 33 -516 89 -707 218 -214 145
-373 391 -452 702 -18 67 -49 263 -49 307 0 8 -4 44 -8 80 -10 83 -11 332 -2
385 18 100 60 190 123 264 46 54 125 121 143 121 5 0 15 7 22 15 7 8 20 15 29
15 9 0 22 5 28 11 12 12 133 58 168 64 11 2 45 8 75 14 83 16 120 22 175 27
27 3 66 7 85 9 19 2 105 7 190 11 85 3 156 7 158 9 1 1 12 1 25 -1 12 -2 87
-6 167 -8z m3815 0 c77 -4 151 -8 165 -10 14 -2 54 -7 90 -10 36 -3 79 -8 95
-11 17 -3 41 -8 55 -10 110 -19 210 -51 300 -97 152 -76 227 -162 301 -343 30
-72 32 -384 4 -565 -2 -14 -7 -50 -10 -80 -8 -67 -43 -234 -57 -269 -5 -14
-12 -36 -14 -47 -4 -19 -28 -80 -72 -174 -26 -58 -93 -162 -141 -220 -59 -70
-119 -130 -131 -130 -6 0 -10 -4 -10 -8 0 -11 -154 -112 -210 -138 -86 -40
-239 -87 -320 -98 -19 -3 -62 -10 -94 -15 -187 -33 -559 -32 -645 0 -14 6 -27
10 -29 9 -16 -9 -184 46 -273 90 -159 79 -281 188 -377 335 -19 30 -94 186
-96 201 -1 7 -5 17 -9 20 -4 4 -7 17 -7 29 0 12 -3 25 -7 29 -4 3 -8 14 -9 24
-1 9 -4 31 -8 47 -11 49 -35 187 -40 227 -2 21 -7 41 -9 45 -3 4 -8 35 -11 68
-3 33 -8 71 -10 85 -19 106 -28 357 -14 383 5 9 5 17 0 17 -8 0 -3 47 12 135
13 73 69 166 123 205 19 14 40 30 46 35 25 22 165 84 247 110 47 15 92 30 100
33 8 3 22 6 30 8 8 1 45 10 81 18 36 8 77 17 90 20 13 2 40 7 59 11 19 3 49 8
65 10 17 2 30 4 30 5 0 1 31 5 140 15 33 3 128 8 210 11 83 4 151 7 153 9 1 1
17 1 35 -1 17 -1 95 -5 172 -8z m-2019 -555 c22 -10 56 -34 75 -54 65 -67 140
-245 164 -387 2 -14 4 -26 4 -27 1 -2 1 -5 2 -8 0 -2 5 -19 10 -37 8 -28 30
-139 54 -273 15 -82 59 -273 68 -295 6 -14 11 -27 12 -30 45 -180 219 -418
395 -542 53 -37 179 -109 200 -114 3 0 19 -6 35 -14 27 -11 142 -45 190 -56
147 -31 211 -37 440 -37 228 -1 290 4 429 33 28 6 60 12 71 14 39 7 111 28
185 53 252 84 457 223 557 378 18 28 36 55 41 61 44 51 201 443 218 543 3 14
9 42 15 61 5 19 16 69 25 110 21 98 23 108 29 150 3 20 7 45 9 55 2 11 7 47
11 80 4 32 9 68 11 80 5 24 17 163 16 188 -1 11 7 17 21 18 12 0 47 2 77 3 30
1 65 7 77 14 27 15 28 26 -18 -207 -12 -57 -23 -116 -25 -130 -2 -14 -7 -37
-10 -51 -3 -14 -8 -38 -11 -55 -3 -16 -11 -59 -19 -95 -8 -36 -16 -78 -19 -93
-2 -16 -14 -72 -25 -125 -12 -53 -25 -117 -30 -142 -5 -25 -12 -56 -15 -70 -3
-14 -7 -34 -9 -45 -4 -17 -40 -182 -52 -236 -23 -105 -57 -215 -70 -230 -8 -8
-14 -19 -14 -22 0 -4 -17 -22 -37 -41 -34 -31 -62 -46 -170 -92 -30 -12 -32
-16 -32 -66 0 -29 -3 -63 -5 -76 -15 -68 -19 -201 -21 -632 -2 -261 -5 -493
-8 -515 -14 -109 -19 -150 -23 -169 -3 -12 -7 -32 -9 -46 -8 -50 -16 -84 -21
-92 -3 -5 -7 -18 -9 -31 -6 -28 -50 -137 -81 -199 -19 -38 -157 -218 -251
-328 -12 -14 -47 -56 -80 -95 -32 -38 -62 -75 -68 -81 -5 -6 -32 -37 -60 -68
-143 -166 -370 -404 -532 -556 -124 -117 -152 -142 -278 -245 -153 -125 -375
-285 -396 -285 -5 0 -9 -4 -9 -8 0 -4 -19 -18 -42 -30 -24 -12 -70 -38 -103
-57 -33 -19 -67 -37 -75 -41 -8 -4 -46 -21 -85 -39 -77 -36 -247 -101 -286
-109 -13 -3 -49 -12 -79 -20 -116 -31 -244 -44 -390 -41 -80 2 -156 5 -170 8
-14 3 -38 8 -55 11 -27 4 -124 24 -150 30 -50 12 -193 60 -202 68 -7 6 -13 8
-13 5 0 -6 -15 0 -110 40 -157 65 -347 164 -519 271 -108 66 -347 227 -361
243 -3 3 -23 18 -45 34 -107 79 -326 260 -430 356 -22 20 -56 51 -75 69 -271
248 -536 548 -609 690 -36 69 -88 206 -97 254 -2 12 -7 35 -11 51 -4 17 -8 35
-9 40 -1 6 -3 12 -4 15 -1 3 -3 16 -5 30 -1 14 -5 39 -8 55 -4 17 -9 48 -12
70 -2 22 -6 60 -10 85 -14 119 -23 299 -29 635 -5 246 -14 459 -21 502 -2 13
-1 22 3 22 22 -3 19 4 -10 29 -18 15 -44 36 -58 45 -14 9 -36 25 -50 34 -13
10 -21 12 -16 6 4 -7 3 -13 -1 -13 -11 0 -117 71 -121 82 -2 4 -8 8 -13 8 -10
0 -56 38 -101 85 -28 28 -59 78 -64 100 -1 6 -9 27 -18 48 -9 20 -13 37 -9 37
5 0 4 4 -2 8 -17 12 -182 510 -200 602 -2 8 -8 35 -15 60 -14 51 -16 59 -35
155 -8 39 -17 81 -20 94 -6 33 -19 187 -18 230 2 111 33 201 81 236 23 17 43
20 124 20 54 0 98 -2 99 -5 2 -8 6 -50 13 -123 3 -37 8 -78 11 -90 2 -12 7
-42 9 -67 8 -72 16 -123 23 -155 3 -16 7 -40 9 -52 1 -11 5 -29 8 -40 3 -10 8
-33 11 -51 23 -135 107 -405 163 -522 9 -19 16 -37 17 -40 1 -10 89 -166 118
-210 34 -51 181 -200 197 -200 9 0 65 -35 80 -50 12 -12 180 -89 240 -109 36
-13 74 -27 85 -31 17 -8 72 -21 185 -46 14 -3 34 -7 45 -9 11 -1 36 -5 55 -9
19 -3 58 -9 85 -13 55 -7 469 -8 525 -1 40 6 116 18 145 25 11 2 31 6 45 9 63
12 201 60 265 91 145 73 298 197 380 308 17 22 32 42 35 45 5 5 21 34 75 137
48 90 104 269 119 378 3 22 8 51 11 65 3 14 8 42 10 64 3 21 9 64 14 95 6 31
13 72 16 91 3 19 11 55 16 80 6 25 12 54 15 65 23 121 67 240 116 315 18 27
39 50 46 50 6 0 12 5 12 10 0 17 98 58 138 58 20 0 55 -8 78 -17z"/>
<path d="M3775 5460 c-59 -14 -131 -54 -176 -99 -42 -42 -104 -129 -101 -141
1 -3 -3 -23 -9 -45 -18 -67 -13 -170 11 -214 6 -12 8 -21 5 -21 -11 0 66 -111
97 -140 39 -35 145 -89 182 -92 14 -1 26 -5 26 -8 0 -6 129 5 166 13 44 11
127 63 168 107 66 70 99 147 104 245 5 95 -16 166 -70 241 -36 50 -25 54 -123
-41 -182 -175 -186 -178 -179 -148 3 15 12 46 19 68 18 51 77 247 79 259 0 4
-8 11 -19 13 -33 9 -148 10 -180 3z"/>
<path d="M7252 5451 c-108 -37 -195 -118 -243 -226 -33 -76 -32 -211 3 -286
71 -153 213 -245 373 -240 37 1 76 7 83 11 1 2 7 4 12 5 6 1 12 4 15 5 6 3 12
5 43 15 12 4 22 11 22 16 0 5 6 9 13 9 21 1 84 62 121 118 91 136 81 310 -25
450 l-17 23 -72 -68 c-40 -38 -102 -96 -138 -130 -35 -35 -66 -63 -67 -63 -2
0 8 35 22 78 13 42 26 84 28 92 2 8 14 47 26 85 29 91 31 103 17 111 -26 16
-163 13 -216 -5z"/>
<path d="M5203 3592 c-37 -17 -48 -39 -32 -58 23 -28 244 -126 314 -140 94
-18 120 -21 176 -19 96 3 136 13 226 56 79 37 173 111 195 153 11 19 10 20
-13 4 -25 -16 -209 -87 -243 -94 -125 -24 -162 -22 -241 11 -101 43 -261 96
-304 99 -29 3 -58 -2 -78 -12z"/>
<path d="M4323 3180 c-24 -10 -43 -17 -43 -15 0 3 -17 -5 -37 -16 -21 -12 -71
-39 -111 -60 -139 -75 -279 -184 -306 -238 -21 -44 -15 -76 15 -79 30 -4 54
17 108 95 19 26 62 71 98 98 35 28 69 55 76 60 24 21 179 125 185 125 8 1 70
50 62 50 -3 0 -24 -9 -47 -20z"/>
<path d="M6981 3143 c47 -32 99 -67 115 -78 119 -79 215 -167 268 -245 45 -66
96 -72 96 -11 0 52 -64 119 -205 212 -86 58 -281 159 -335 173 -14 4 14 -19
61 -51z"/>
<path d="M6686 2303 c-1 -1 -24 -5 -52 -8 -27 -3 -76 -10 -109 -15 -33 -5 -78
-12 -100 -15 -23 -3 -52 -8 -65 -10 -14 -3 -43 -8 -65 -11 -22 -2 -52 -7 -67
-9 -16 -3 -40 -7 -55 -9 -83 -13 -120 -19 -138 -22 -11 -3 -45 -7 -74 -10 -30
-3 -57 -7 -60 -9 -10 -5 -153 -18 -211 -19 -77 0 -219 14 -330 34 -30 5 -75
12 -100 15 -25 3 -56 7 -70 10 -14 3 -41 7 -60 9 -52 7 -120 16 -160 22 -19 3
-51 7 -70 9 -19 2 -48 6 -65 9 -16 3 -57 9 -90 12 -33 3 -71 7 -85 8 -14 2
-34 0 -45 -4 -17 -6 -15 -10 21 -28 46 -23 192 -72 223 -75 12 -1 21 -5 21
-10 0 -4 4 -6 8 -3 5 3 32 -1 61 -9 28 -7 54 -13 56 -13 5 0 66 -10 120 -19
82 -13 735 -26 759 -14 5 2 35 6 65 7 63 3 131 11 176 20 17 3 39 7 50 9 24 3
271 69 335 89 25 8 79 22 120 32 81 18 122 34 82 31 -13 -1 -24 -2 -26 -4z"/>
<path d="M9253 5887 c1 -15 5 -27 10 -27 10 0 9 22 -2 39 -7 10 -9 7 -8 -12z"/>
</g>
</svg>
